<svg xmlns="http://www.w3.org/2000/svg" fill="none" viewBox="0 0 200 200" width="140" height="140" class="coolshapes star-9 "><g clip-path="url(#cs_clip_1_star-9)"><mask id="cs_mask_1_star-9" style="mask-type:alpha" width="200" height="200" x="0" y="0" maskUnits="userSpaceOnUse"><path fill="#fff" d="M199.686.315C144.773 55.57 144.877 144.877 200 200c-55.123-55.123-144.432-55.229-199.686-.315C55.227 144.432 55.123 55.123 0 0c55.123 55.123 144.432 55.23 199.686.315z"/></mask><g mask="url(#cs_mask_1_star-9)"><path fill="#fff" d="M200 0H0v200h200V0z"/><path fill="url(#paint0_linear_${shapeId})" d="M200 0H0v200h200V0z"/><g filter="url(#filter0_f_748_star-9)"><ellipse cx="143.777" cy="159.535" fill="#FF58E4" rx="91.994" ry="58.126" transform="rotate(-33.875 143.777 159.535)"/><ellipse cx="64.482" cy="49.587" fill="#00F0FF" rx="69.531" ry="47.75" transform="rotate(-26.262 64.482 49.587)"/></g></g></g><defs><filter id="filter0_f_748_star-9" width="388.137" height="393.095" x="-81.372" y="-83.144" color-interpolation-filters="sRGB" filterUnits="userSpaceOnUse"><feFlood flood-opacity="0" result="BackgroundImageFix"/><feBlend in="SourceGraphic" in2="BackgroundImageFix" result="shape"/><feGaussianBlur result="effect1_foregroundBlur_748_star-9" stdDeviation="40"/></filter><linearGradient id="paint0_linear_star-9" x1="158.5" x2="29" y1="12.5" y2="200" gradientUnits="userSpaceOnUse"><stop stop-color="#0E6FFF"/><stop offset="1" stop-color="#00F0FF"/></linearGradient><clipPath id="cs_clip_1_star-9"><path fill="#fff" d="M0 0H200V200H0z"/></clipPath></defs><g mask="url(#cs_mask_1_star-9)" style="mix-blend-mode: overlay;"><path fill="gray" stroke="transparent" d="M200 0H0v200h200V0z" filter="url(#cs_noise_1_star-9)"/></g><defs><filter id="cs_noise_1_star-9" width="100%" height="100%" x="0%" y="0%" filterUnits="objectBoundingBox"><feTurbulence baseFrequency="0.6" numOctaves="5" result="out1" seed="4"/><feComposite in="out1" in2="SourceGraphic" operator="in" result="out2"/><feBlend in="SourceGraphic" in2="out2" mode="overlay" result="out3"/></filter></defs></svg>