<svg xmlns="http://www.w3.org/2000/svg" fill="none" viewBox="0 0 200 200" width="140" height="140" class="coolshapes blob-1 "><g clip-path="url(#cs_clip_1_blob-1)"><mask id="cs_mask_1_blob-1" style="mask-type:alpha" width="200" height="200" x="0" y="0" maskUnits="userSpaceOnUse"><path fill="#fff" d="M140 20C170 20 180 50 180 80C180 110 190 140 170 170C150 190 120 180 100 180C80 180 50 190 30 170C10 140 20 110 20 80C20 50 30 20 60 20C90 20 110 20 140 20Z"/></mask><g mask="url(#cs_mask_1_blob-1)"><path fill="#fff" d="M200 0H0v200h200V0z"/><path fill="url(#paint0_linear_${shapeId})" d="M200 0H0v200h200V0z"/><g filter="url(#filter0_f_748_blob-1)"><ellipse cx="143.777" cy="159.535" fill="#02d5d9" rx="91.994" ry="58.126" transform="rotate(-33.875 143.777 159.535)"/><ellipse cx="64.482" cy="49.587" fill="#00F0FF" rx="69.531" ry="47.75" transform="rotate(-26.262 64.482 49.587)"/></g></g></g><defs><filter id="filter0_f_748_blob-1" width="388.137" height="393.095" x="-81.372" y="-83.144" color-interpolation-filters="sRGB" filterUnits="userSpaceOnUse"><feFlood flood-opacity="0" result="BackgroundImageFix"/><feBlend in="SourceGraphic" in2="BackgroundImageFix" result="shape"/><feGaussianBlur result="effect1_foregroundBlur_748_blob-1" stdDeviation="40"/></filter><linearGradient id="paint0_linear_blob-1" x1="158.5" x2="29" y1="12.5" y2="200" gradientUnits="userSpaceOnUse"><stop stop-color="#0E6FFF"/><stop offset="1" stop-color="#00F0FF"/></linearGradient><clipPath id="cs_clip_1_blob-1"><path fill="#fff" d="M0 0H200V200H0z"/></clipPath></defs><g mask="url(#cs_mask_1_blob-1)" style="mix-blend-mode: overlay;"><path fill="gray" stroke="transparent" d="M200 0H0v200h200V0z" filter="url(#cs_noise_1_blob-1)"/></g><defs><filter id="cs_noise_1_blob-1" width="100%" height="100%" x="0%" y="0%" filterUnits="objectBoundingBox"><feTurbulence baseFrequency="0.6" numOctaves="5" result="out1" seed="4"/><feComposite in="out1" in2="SourceGraphic" operator="in" result="out2"/><feBlend in="SourceGraphic" in2="out2" mode="overlay" result="out3"/></filter></defs></svg>