<svg width="200" height="200" viewBox="0 0 200 200" fill="none" xmlns="http://www.w3.org/2000/svg">
  <defs>
    <linearGradient id="g3" x1="0.2" y1="0" x2="0.8" y2="1">
      <stop offset="0%" stop-color="#0054fa"/>
      <stop offset="50%" stop-color="#02d5d9"/>
      <stop offset="100%" stop-color="#0054fa"/>
    </linearGradient>
    <filter id="noise3">
      <feTurbulence type="fractalNoise" baseFrequency="0.65" numOctaves="3" stitchTiles="stitch"/>
      <feColorMatrix type="saturate" values="0"/>
      <feBlend in="SourceGraphic" mode="multiply"/>
    </filter>
  </defs>
  <path d="M100 30C115 30 120 0 135 15C150 30 170 50 170 65C185 80 200 85 185 100C200 115 185 120 170 135C170 150 150 170 135 170C120 185 115 200 100 185C85 200 80 185 65 170C50 170 30 150 30 135C15 120 0 115 15 100C0 85 15 80 30 65C30 50 50 30 65 30C80 15 85 30 100 30Z" fill="url(#g3)" filter="url(#noise3)"/>
</svg>
